# xmcd CD database file
#
# Track frame offsets:
#	150
#	16213
#	40158
#	52686
#	67126
#	87348
#	94128
#	114708
#	136763
#	171120
#	186848
#	204927
#	227631
#	239536
#	265641
#	272701
#	290479
#
# Disc length: 3952 seconds
#
# Revision: 0
# Processed by: cddbd v1.5.1PL2 Copyright (c) Steve Scherf et al.
# Submitted via: CDex 1.51
#
DISCID=e90f6e11
DTITLE=Va Fan Fahre - Romski Robbery
DYEAR=2005
DGENRE=Jazz
TTITLE0=31
TTITLE1=Filou
TTITLE2=Mofletuchi
TTITLE3=Plakke plakke
TTITLE4=El Tajin
TTITLE5=Mikey Mo's Magic Organ Part I
TTITLE6=Michaelovitsj [Night Rider]
TTITLE7=Jood
TTITLE8=Romski Robbery
TTITLE9=Ledeberg Waltz
TTITLE10=Xiao Guaishou
TTITLE11=Zephyrus
TTITLE12=Filou II
TTITLE13=Serafina
TTITLE14=Dem Tsadeks Zemer'l
TTITLE15=Surfing with the Jews II
TTITLE16=Mikey Mo's Magic Organ Part II
EXTD=YEAR: 2005
EXTT0=
EXTT1=
EXTT2=
EXTT3=
EXTT4=
EXTT5=
EXTT6=
EXTT7=
EXTT8=
EXTT9=
EXTT10=
EXTT11=
EXTT12=
EXTT13=
EXTT14=
EXTT15=
EXTT16=
PLAYORDER=
